<svg width="40" height="40" viewBox="0 0 40 40" fill="none" xmlns="http://www.w3.org/2000/svg">
<circle cx="20" cy="20" r="20" fill="white"/>
<path d="M25 12.4496C25 12.3317 24.9521 12.2187 24.8669 12.1354C24.7816 12.0521 24.666 12.0053 24.5455 12.0053H22.2727C21.1283 11.9495 20.0078 12.3388 19.1561 13.0881C18.3044 13.8373 17.7907 14.8856 17.7273 16.0039V18.4032H15.4545C15.334 18.4032 15.2184 18.45 15.1331 18.5333C15.0479 18.6166 15 18.7296 15 18.8475V21.1578C15 21.2756 15.0479 21.3886 15.1331 21.472C15.2184 21.5553 15.334 21.6021 15.4545 21.6021H17.7273V27.5557C17.7273 27.6735 17.7752 27.7865 17.8604 27.8699C17.9456 27.9532 18.0613 28 18.1818 28H20.9091C21.0296 28 21.1453 27.9532 21.2305 27.8699C21.3157 27.7865 21.3636 27.6735 21.3636 27.5557V21.6021H23.7455C23.8465 21.6035 23.9452 21.572 24.0259 21.5124C24.1066 21.4529 24.1646 21.3687 24.1909 21.2733L24.8455 18.963C24.8635 18.8973 24.866 18.8285 24.8526 18.7618C24.8392 18.6951 24.8103 18.6323 24.7681 18.5782C24.726 18.5241 24.6717 18.4802 24.6094 18.4499C24.5472 18.4195 24.4786 18.4035 24.4091 18.4032H21.3636V16.0039C21.3862 15.784 21.4919 15.5802 21.66 15.4323C21.8281 15.2844 22.0466 15.2031 22.2727 15.2042H24.5455C24.666 15.2042 24.7816 15.1574 24.8669 15.0741C24.9521 14.9907 25 14.8777 25 14.7599V12.4496Z" fill="#094A67"/>
</svg>
