<svg width="40" height="40" viewBox="0 0 40 40" fill="none" xmlns="http://www.w3.org/2000/svg">
<circle cx="20" cy="20" r="19.5" stroke="white"/>
<path d="M27 15.4255C26.4484 15.6598 25.8481 15.8284 25.2298 15.8941C25.8717 15.5185 26.3525 14.9252 26.5818 14.2255C25.9794 14.5783 25.3195 14.8258 24.6313 14.9568C24.3437 14.654 23.9958 14.4128 23.6094 14.2482C23.2229 14.0836 22.8062 13.9991 22.3852 14C20.6816 14 19.3116 15.3598 19.3116 17.0284C19.3116 17.2627 19.3405 17.497 19.3873 17.7225C16.8366 17.5911 14.5616 16.3911 13.0492 14.5539C12.7736 15.0174 12.6292 15.5451 12.6309 16.0823C12.6309 17.1331 13.1735 18.0598 14.001 18.6047C13.5133 18.5858 13.0372 18.4538 12.6111 18.2195V18.2568C12.6111 19.7284 13.6675 20.9479 15.0754 21.2284C14.811 21.296 14.5391 21.3306 14.266 21.3314C14.0659 21.3314 13.8766 21.3118 13.6855 21.2852C14.0749 22.4852 15.2087 23.3568 16.5589 23.3852C15.5026 24.2 14.1794 24.6793 12.7427 24.6793C12.4849 24.6793 12.247 24.6704 12 24.642C13.3628 25.503 14.9798 26 16.7212 26C22.3744 26 25.4677 21.3882 25.4677 17.3852C25.4677 17.2539 25.4677 17.1225 25.4587 16.9911C26.0572 16.5598 26.5818 16.0254 27 15.4255Z" fill="white"/>
</svg>
