<svg width="102" height="24" viewBox="0 0 102 24" fill="none" xmlns="http://www.w3.org/2000/svg">
<path d="M4.60075 19.2262H13.5022V23.5422H0V0.653934H4.60075V19.2262Z" fill="white"/>
<path d="M20.8912 17.1008C21.469 19.1499 23.036 20.1744 25.5919 20.1744C27.2367 20.1744 28.4813 19.6294 29.3259 18.5395L32.7931 20.5014C31.1484 22.8338 28.7258 24 25.5253 24C22.7693 24 20.5578 23.1826 18.8908 21.5477C17.2239 19.9128 16.3904 17.8529 16.3904 15.3678C16.3904 12.9046 17.2128 10.8556 18.8575 9.2207C20.5022 7.56402 22.6137 6.73568 25.1919 6.73568C27.6367 6.73568 29.6482 7.56402 31.2262 9.2207C32.8265 10.8774 33.6266 12.9264 33.6266 15.3678C33.6266 15.9128 33.571 16.4905 33.4599 17.1008H20.8912ZM20.8245 13.8311H29.3259C29.0814 12.7193 28.5702 11.891 27.7923 11.346C27.0366 10.8011 26.1698 10.5286 25.1919 10.5286C24.0361 10.5286 23.0804 10.8229 22.3247 11.4114C21.5691 11.9782 21.069 12.7847 20.8245 13.8311Z" fill="white"/>
<path d="M52.7209 23.5422H47.7534L44.1528 18.5722L40.5189 23.5422H35.5514L41.6524 15.2044L35.8181 7.19345H40.7856L44.1528 11.8038L47.52 7.19345H52.4541L46.6199 15.1717L52.7209 23.5422Z" fill="white"/>
<path d="M58.6682 5.2316C57.957 5.2316 57.3346 4.98091 56.8012 4.47955C56.29 3.95639 56.0344 3.34603 56.0344 2.64849C56.0344 1.95094 56.29 1.34058 56.8012 0.817421C57.3346 0.29426 57.957 0.03268 58.6682 0.03268C59.4016 0.03268 60.024 0.29426 60.5351 0.817421C61.0686 1.34058 61.3353 1.95094 61.3353 2.64849C61.3353 3.34603 61.0686 3.95639 60.5351 4.47955C60.024 4.98091 59.4016 5.2316 58.6682 5.2316ZM56.5345 23.5422V7.19345H60.8352V23.5422H56.5345Z" fill="white"/>
<path d="M77.4069 7.19345H82.141L75.8067 23.5422H70.9059L64.5715 7.19345H69.3056L73.3396 18.6376L77.4069 7.19345Z" fill="white"/>
<path d="M99.4329 21.515C97.7215 23.1717 95.6323 24 93.1652 24C90.6982 24 88.6089 23.1717 86.8975 21.515C85.2084 19.8365 84.3638 17.7875 84.3638 15.3678C84.3638 12.9482 85.2084 10.9101 86.8975 9.2534C88.6089 7.57492 90.6982 6.73568 93.1652 6.73568C95.6323 6.73568 97.7215 7.57492 99.4329 9.2534C101.144 10.9101 102 12.9482 102 15.3678C102 17.7875 101.144 19.8365 99.4329 21.515ZM89.9314 18.6049C90.7982 19.455 91.8761 19.8801 93.1652 19.8801C94.4543 19.8801 95.5323 19.455 96.3991 18.6049C97.2659 17.7548 97.6993 16.6757 97.6993 15.3678C97.6993 14.0599 97.2659 12.9809 96.3991 12.1308C95.5323 11.2806 94.4543 10.8556 93.1652 10.8556C91.8761 10.8556 90.7982 11.2806 89.9314 12.1308C89.0868 12.9809 88.6645 14.0599 88.6645 15.3678C88.6645 16.6757 89.0868 17.7548 89.9314 18.6049Z" fill="white"/>
<path d="M61.3642 2.69755C61.3642 4.18737 60.1328 5.3951 58.6137 5.3951C57.0947 5.3951 55.8633 4.18737 55.8633 2.69755C55.8633 1.20773 57.0947 0 58.6137 0C60.1328 0 61.3642 1.20773 61.3642 2.69755Z" fill="#50E7F0"/>
</svg>
