<svg width="32" height="32" viewBox="0 0 32 32" fill="none" xmlns="http://www.w3.org/2000/svg">
<path d="M3 24V21.1411C3 13.9562 8.7692 8.02494 15.954 8.00008C17.6651 7.99403 19.3605 8.32581 20.943 8.97641C22.5255 9.62701 23.9641 10.5836 25.1761 11.7914C26.3882 12.9991 27.3498 14.4343 28.006 16.0145C28.6622 17.5947 29 19.2889 29 21V24C29 24.2652 28.8946 24.5196 28.7071 24.7071C28.5196 24.8946 28.2652 25 28 25H4C3.73478 25 3.48043 24.8946 3.29289 24.7071C3.10536 24.5196 3 24.2652 3 24Z" fill="white"/>
<path d="M20.5 20.5C21.0523 20.5 21.5 20.0523 21.5 19.5C21.5 18.9477 21.0523 18.5 20.5 18.5C19.9477 18.5 19.5 18.9477 19.5 19.5C19.5 20.0523 19.9477 20.5 20.5 20.5Z" fill="black"/>
<path d="M11.5 20.5C12.0523 20.5 12.5 20.0523 12.5 19.5C12.5 18.9477 12.0523 18.5 11.5 18.5C10.9477 18.5 10.5 18.9477 10.5 19.5C10.5 20.0523 10.9477 20.5 11.5 20.5Z" fill="black"/>
<path d="M4 7L7.88408 10.8841" stroke="white" stroke-linecap="round" stroke-linejoin="round"/>
<path d="M28 7L24.1379 10.8621" stroke="white" stroke-linecap="round" stroke-linejoin="round"/>
</svg>
