<svg width="40" height="40" viewBox="0 0 40 40" fill="none" xmlns="http://www.w3.org/2000/svg">
<circle cx="20" cy="20" r="20" fill="white"/>
<path d="M13.4 11C12.012 11 11.0039 11.8318 11.0039 12.9758C11.0039 14.1238 12.036 14.9922 13.4 14.9922C14.788 14.9922 15.7961 14.1443 15.7961 12.9523C15.7321 11.8043 14.744 11 13.4 11ZM11.4 15.7961C11.18 15.7961 11 15.9761 11 16.1961V27.7961C11 28.0161 11.18 28.1961 11.4 28.1961H15.4C15.62 28.1961 15.8 28.0161 15.8 27.7961V16.1961C15.8 15.9761 15.62 15.7961 15.4 15.7961H11.4ZM17.4 15.7961C17.18 15.7961 17 15.9761 17 16.1961V27.7961C17 28.0161 17.18 28.1961 17.4 28.1961H21C21.2208 28.1961 21.4 28.0169 21.4 27.7961V21.7961V21.6961V21.5961C21.4 20.6481 22.1283 19.8759 23.0563 19.8039C23.1043 19.7959 23.152 19.7961 23.2 19.7961C23.248 19.7961 23.2958 19.7959 23.3438 19.8039C24.2718 19.8759 25 20.6481 25 21.5961V27.7961C25 28.0169 25.1792 28.1961 25.4 28.1961H29C29.22 28.1961 29.4 28.0161 29.4 27.7961V20.9961C29.4 18.4081 28.0116 15.7961 24.9156 15.7961C23.5076 15.7961 22.444 16.3402 21.8 16.7922V16.1961C21.8 15.9761 21.62 15.7961 21.4 15.7961H17.4Z" fill="#094A67"/>
</svg>
