<svg width="40" height="40" viewBox="0 0 40 40" fill="none" xmlns="http://www.w3.org/2000/svg">
<circle cx="20" cy="20" r="19.5" stroke="white"/>
<path d="M13.2 11.2039C11.812 11.2039 10.804 12.0356 10.804 13.1796C10.804 14.3276 11.836 15.196 13.2 15.196C14.588 15.196 15.5961 14.3482 15.5961 13.1562C15.5321 12.0082 14.544 11.2039 13.2 11.2039ZM11.2 16C10.98 16 10.8 16.18 10.8 16.4V28C10.8 28.22 10.98 28.4 11.2 28.4H15.2C15.42 28.4 15.6 28.22 15.6 28V16.4C15.6 16.18 15.42 16 15.2 16H11.2ZM17.2 16C16.98 16 16.8 16.18 16.8 16.4V28C16.8 28.22 16.98 28.4 17.2 28.4H20.8C21.0208 28.4 21.2 28.2208 21.2 28V22V21.9V21.8C21.2 20.852 21.9283 20.0798 22.8563 20.0078C22.9043 19.9998 22.952 20 23 20C23.048 20 23.0958 19.9998 23.1438 20.0078C24.0718 20.0798 24.8 20.852 24.8 21.8V28C24.8 28.2208 24.9792 28.4 25.2 28.4H28.8C29.02 28.4 29.2 28.22 29.2 28V21.2C29.2 18.612 27.8117 16 24.7157 16C23.3077 16 22.244 16.544 21.6 16.996V16.4C21.6 16.18 21.42 16 21.2 16H17.2Z" fill="white"/>
</svg>
